<svg xmlns="http://www.w3.org/2000/svg" viewBox="0 0 1000 500" fill="#c4b8a8" stroke="none">
  <!-- Simplified world map continents for decorative background -->
  <!-- North America -->
  <path d="M165,55 L175,50 185,55 195,48 210,52 225,45 230,50 235,55 240,48 255,50 260,55 258,65 250,75 245,85 240,95 235,105 230,115 225,125 228,130 235,128 240,135 245,140 248,150 245,155 240,160 235,165 230,170 228,175 230,180 235,185 238,190 235,195 228,198 220,195 215,190 210,185 205,190 198,195 195,200 190,205 185,208 180,210 175,215 170,218 165,215 160,210 155,208 148,210 145,215 140,218 135,215 130,210 125,205 120,200 115,195 112,190 110,185 108,180 105,175 102,170 100,165 98,160 96,155 95,150 94,145 92,140 90,138 88,140 85,145 82,150 80,155 75,158 70,155 68,150 70,145 72,140 75,135 78,130 80,125 85,120 90,115 95,110 100,105 108,100 115,95 120,90 128,85 135,80 140,75 145,70 150,65 155,60 160,58Z"/>
  <!-- Greenland -->
  <path d="M270,20 L280,15 295,18 305,22 310,28 308,35 300,42 290,48 282,45 275,40 270,35 268,28Z"/>
  <!-- South America -->
  <path d="M230,230 L235,225 240,228 248,232 255,238 258,245 260,255 262,265 260,275 258,285 255,295 252,305 250,315 248,325 245,335 240,345 235,355 230,365 225,375 220,385 215,392 210,398 205,405 200,410 195,415 190,420 185,422 182,418 180,412 178,405 180,398 185,390 188,382 190,375 195,365 198,355 200,348 202,340 205,330 208,320 210,310 215,300 218,290 220,280 222,270 225,260 228,250 230,240Z"/>
  <!-- Europe -->
  <path d="M440,45 L445,50 450,55 455,52 460,48 468,50 475,55 480,60 485,65 490,70 488,78 485,85 480,90 475,95 478,100 482,105 485,110 488,115 490,120 488,125 485,130 480,135 475,138 470,142 465,145 460,148 455,150 450,148 445,145 440,148 435,152 430,148 425,145 420,140 418,135 420,128 425,122 430,118 435,115 432,110 428,105 425,100 428,95 432,90 435,85 438,80 440,72 442,65 440,58Z"/>
  <!-- Africa -->
  <path d="M445,155 L450,152 458,155 465,158 470,162 478,168 485,175 490,182 495,190 498,200 500,210 502,220 505,230 508,240 510,250 512,260 510,270 508,280 505,290 502,300 498,310 495,318 490,325 485,332 480,338 475,342 470,345 465,348 460,350 455,348 450,345 445,340 440,335 435,328 430,320 428,312 430,305 432,298 435,290 438,282 440,275 438,268 435,260 432,252 435,245 438,238 440,230 442,222 440,215 438,208 440,200 442,192 445,185 448,178 450,170 448,162Z"/>
  <!-- Asia -->
  <path d="M490,45 L500,42 510,40 525,38 540,35 555,38 570,40 585,42 600,45 615,48 630,50 648,48 665,45 680,48 695,50 710,52 725,55 740,58 755,60 770,55 785,52 795,55 800,60 795,68 785,75 778,82 772,88 768,95 775,100 782,105 788,110 792,118 790,125 785,132 780,138 775,145 770,150 765,155 758,160 750,165 745,170 740,175 735,180 728,178 720,175 715,180 710,185 705,190 698,188 690,185 685,180 680,175 675,170 670,165 665,160 658,162 650,165 645,170 640,175 635,178 628,175 620,172 615,168 610,165 605,168 598,172 590,175 585,170 580,165 575,160 570,155 565,150 558,148 550,150 545,155 540,158 535,155 530,150 525,145 520,140 515,135 510,130 508,125 510,118 515,112 520,108 518,102 515,95 510,88 505,82 500,75 495,68 492,60 490,52Z"/>
  <!-- India -->
  <path d="M620,175 L625,180 630,188 632,198 630,208 628,218 625,228 622,235 618,242 615,248 610,252 605,248 602,242 600,235 602,228 605,220 608,212 610,205 612,198 615,190 618,182Z"/>
  <!-- Southeast Asia / Indonesia -->
  <path d="M680,200 L688,198 695,202 700,208 705,212 710,218 715,215 720,210 725,215 730,220 728,228 722,232 715,228 710,225 705,222 698,225 692,228 688,232 682,228 678,222 675,215 678,208Z"/>
  <path d="M732,225 L738,222 745,225 750,230 748,238 742,242 736,238 732,232Z"/>
  <path d="M752,228 L758,225 765,228 770,235 768,242 762,245 755,242 752,235Z"/>
  <!-- Australia -->
  <path d="M720,310 L730,305 742,302 755,300 768,302 780,305 792,310 802,318 808,328 812,338 810,350 805,360 798,368 790,375 780,380 770,382 758,380 748,375 740,368 732,360 728,350 725,340 722,330 720,320Z"/>
  <!-- Japan -->
  <path d="M790,85 L795,80 800,82 802,88 800,95 798,102 795,108 790,112 785,108 788,100 790,92Z"/>
  <path d="M785,65 L790,62 795,65 792,72 788,75 785,72Z"/>
  <!-- UK / Ireland -->
  <path d="M418,65 L422,62 425,65 428,70 426,75 422,78 418,75 416,70Z"/>
  <path d="M412,68 L415,65 417,68 415,72 412,72Z"/>
  <!-- Iceland -->
  <path d="M365,28 L370,25 378,28 380,32 375,35 368,35 365,32Z"/>
  <!-- New Zealand -->
  <path d="M850,375 L855,370 858,375 856,382 852,388 848,385 846,380Z"/>
  <path d="M845,390 L850,388 852,392 850,398 846,400 843,396Z"/>
  <!-- Sri Lanka -->
  <path d="M628,248 L632,245 635,248 633,255 630,258 627,255Z"/>
  <!-- Madagascar -->
  <path d="M548,320 L552,315 556,320 555,330 552,338 548,335 546,328Z"/>
</svg>
